<mxfile host="Electron" modified="2024-04-20T06:21:09.008Z" agent="Mozilla/5.0 (Macintosh; Intel Mac OS X 10_15_7) AppleWebKit/537.36 (KHTML, like Gecko) draw.io/24.2.5 Chrome/120.0.6099.109 Electron/28.1.0 Safari/537.36" etag="a6RGGFHPZPpkcBmer7Dp" version="24.2.5" type="device">
  <diagram name="Trang-1" id="_UIEhEMHgrVxv4N5XX6Z">
    <mxGraphModel dx="2261" dy="854" grid="1" gridSize="10" guides="1" tooltips="1" connect="1" arrows="1" fold="1" page="1" pageScale="1" pageWidth="827" pageHeight="1169" math="0" shadow="0">
      <root>
        <mxCell id="0" />
        <mxCell id="1" parent="0" />
        <mxCell id="NmorBJye4ewMazEb5oh--5" value="&lt;div&gt;&amp;lt;&amp;lt;abstract&amp;gt;&amp;gt;&lt;/div&gt;ISearch" style="swimlane;fontStyle=0;childLayout=stackLayout;horizontal=1;startSize=26;fillColor=none;horizontalStack=0;resizeParent=1;resizeParentMax=0;resizeLast=0;collapsible=1;marginBottom=0;whiteSpace=wrap;html=1;" parent="1" vertex="1">
          <mxGeometry x="350" y="100" width="230" height="50" as="geometry" />
        </mxCell>
        <mxCell id="NmorBJye4ewMazEb5oh--6" value="+ search(): Any &amp;lt;&amp;lt;abstract&amp;gt;&amp;gt;" style="text;strokeColor=none;fillColor=none;align=left;verticalAlign=top;spacingLeft=4;spacingRight=4;overflow=hidden;rotatable=0;points=[[0,0.5],[1,0.5]];portConstraint=eastwest;whiteSpace=wrap;html=1;" parent="NmorBJye4ewMazEb5oh--5" vertex="1">
          <mxGeometry y="26" width="230" height="24" as="geometry" />
        </mxCell>
        <mxCell id="NmorBJye4ewMazEb5oh--15" value="&lt;div&gt;&amp;lt;&amp;lt;abstract&amp;gt;&amp;gt;&lt;/div&gt;IInformedSearch" style="swimlane;fontStyle=0;childLayout=stackLayout;horizontal=1;startSize=26;fillColor=none;horizontalStack=0;resizeParent=1;resizeParentMax=0;resizeLast=0;collapsible=1;marginBottom=0;whiteSpace=wrap;html=1;" parent="1" vertex="1">
          <mxGeometry x="-180" y="230" width="230" height="110" as="geometry" />
        </mxCell>
        <mxCell id="NmorBJye4ewMazEb5oh--16" value="+ search(Grid grid, tuple[int, int] start, tuple[int, int] goal, IHeuristicType heuristicType): (tuple[list, int, list] | tuple[None, int, list])&amp;nbsp; &amp;lt;&amp;lt;abstract&amp;gt;&amp;gt;" style="text;strokeColor=none;fillColor=none;align=left;verticalAlign=top;spacingLeft=4;spacingRight=4;overflow=hidden;rotatable=0;points=[[0,0.5],[1,0.5]];portConstraint=eastwest;whiteSpace=wrap;html=1;" parent="NmorBJye4ewMazEb5oh--15" vertex="1">
          <mxGeometry y="26" width="230" height="84" as="geometry" />
        </mxCell>
        <mxCell id="NmorBJye4ewMazEb5oh--17" style="edgeStyle=orthogonalEdgeStyle;rounded=0;orthogonalLoop=1;jettySize=auto;html=1;exitX=0.5;exitY=0;exitDx=0;exitDy=0;entryX=0.391;entryY=1;entryDx=0;entryDy=0;entryPerimeter=0;endArrow=block;endFill=0;" parent="1" source="NmorBJye4ewMazEb5oh--15" target="NmorBJye4ewMazEb5oh--6" edge="1">
          <mxGeometry relative="1" as="geometry" />
        </mxCell>
        <mxCell id="NmorBJye4ewMazEb5oh--21" style="edgeStyle=orthogonalEdgeStyle;rounded=0;orthogonalLoop=1;jettySize=auto;html=1;exitX=0.5;exitY=0;exitDx=0;exitDy=0;entryX=0.652;entryY=1;entryDx=0;entryDy=0;entryPerimeter=0;endArrow=block;endFill=0;" parent="1" source="NmorBJye4ewMazEb5oh--18" target="NmorBJye4ewMazEb5oh--6" edge="1">
          <mxGeometry relative="1" as="geometry">
            <mxPoint x="500" y="160" as="targetPoint" />
          </mxGeometry>
        </mxCell>
        <mxCell id="NmorBJye4ewMazEb5oh--18" value="&lt;div&gt;&amp;lt;&amp;lt;abstract&amp;gt;&amp;gt;&lt;/div&gt;&lt;div&gt;IUninformedSearch&lt;/div&gt;" style="swimlane;fontStyle=0;childLayout=stackLayout;horizontal=1;startSize=26;fillColor=none;horizontalStack=0;resizeParent=1;resizeParentMax=0;resizeLast=0;collapsible=1;marginBottom=0;whiteSpace=wrap;html=1;" parent="1" vertex="1">
          <mxGeometry x="700" y="220" width="230" height="110" as="geometry" />
        </mxCell>
        <mxCell id="NmorBJye4ewMazEb5oh--19" value="+ search(Grid grid, tuple[int, int] start, tuple[int, int] goal): (tuple[list, int, list] | tuple[None, int, list])&amp;nbsp; &amp;lt;&amp;lt;abstract&amp;gt;&amp;gt;" style="text;strokeColor=none;fillColor=none;align=left;verticalAlign=top;spacingLeft=4;spacingRight=4;overflow=hidden;rotatable=0;points=[[0,0.5],[1,0.5]];portConstraint=eastwest;whiteSpace=wrap;html=1;" parent="NmorBJye4ewMazEb5oh--18" vertex="1">
          <mxGeometry y="26" width="230" height="84" as="geometry" />
        </mxCell>
        <mxCell id="NmorBJye4ewMazEb5oh--29" style="edgeStyle=orthogonalEdgeStyle;rounded=0;orthogonalLoop=1;jettySize=auto;html=1;exitX=0.5;exitY=0;exitDx=0;exitDy=0;entryX=0;entryY=0.5;entryDx=0;entryDy=0;endArrow=block;endFill=0;" parent="1" source="NmorBJye4ewMazEb5oh--22" target="NmorBJye4ewMazEb5oh--19" edge="1">
          <mxGeometry relative="1" as="geometry" />
        </mxCell>
        <mxCell id="NmorBJye4ewMazEb5oh--22" value="DepthFirstSearch" style="swimlane;fontStyle=0;childLayout=stackLayout;horizontal=1;startSize=26;fillColor=none;horizontalStack=0;resizeParent=1;resizeParentMax=0;resizeLast=0;collapsible=1;marginBottom=0;whiteSpace=wrap;html=1;" parent="1" vertex="1">
          <mxGeometry x="430" y="400" width="230" height="110" as="geometry" />
        </mxCell>
        <mxCell id="NmorBJye4ewMazEb5oh--23" value="+ search(Grid grid, tuple[int, int] start, tuple[int, int] goal): (tuple[list, int, list] | tuple[None, int, list])&amp;nbsp; &amp;lt;&amp;lt;override&amp;gt;&amp;gt;" style="text;strokeColor=none;fillColor=none;align=left;verticalAlign=top;spacingLeft=4;spacingRight=4;overflow=hidden;rotatable=0;points=[[0,0.5],[1,0.5]];portConstraint=eastwest;whiteSpace=wrap;html=1;" parent="NmorBJye4ewMazEb5oh--22" vertex="1">
          <mxGeometry y="26" width="230" height="84" as="geometry" />
        </mxCell>
        <mxCell id="NmorBJye4ewMazEb5oh--28" style="edgeStyle=orthogonalEdgeStyle;rounded=0;orthogonalLoop=1;jettySize=auto;html=1;exitX=0.5;exitY=0;exitDx=0;exitDy=0;entryX=0.499;entryY=1.003;entryDx=0;entryDy=0;entryPerimeter=0;endArrow=block;endFill=0;" parent="1" source="NmorBJye4ewMazEb5oh--24" target="NmorBJye4ewMazEb5oh--19" edge="1">
          <mxGeometry relative="1" as="geometry">
            <mxPoint x="814.8108108108108" y="340" as="targetPoint" />
          </mxGeometry>
        </mxCell>
        <mxCell id="NmorBJye4ewMazEb5oh--24" value="BreadthFirstSearch" style="swimlane;fontStyle=0;childLayout=stackLayout;horizontal=1;startSize=26;fillColor=none;horizontalStack=0;resizeParent=1;resizeParentMax=0;resizeLast=0;collapsible=1;marginBottom=0;whiteSpace=wrap;html=1;" parent="1" vertex="1">
          <mxGeometry x="700" y="400" width="230" height="110" as="geometry" />
        </mxCell>
        <mxCell id="NmorBJye4ewMazEb5oh--25" value="+ search(Grid grid, tuple[int, int] start, tuple[int, int] goal): (tuple[list, int, list] | tuple[None, int, list])&amp;nbsp; &amp;lt;&amp;lt;override&amp;gt;&amp;gt;" style="text;strokeColor=none;fillColor=none;align=left;verticalAlign=top;spacingLeft=4;spacingRight=4;overflow=hidden;rotatable=0;points=[[0,0.5],[1,0.5]];portConstraint=eastwest;whiteSpace=wrap;html=1;" parent="NmorBJye4ewMazEb5oh--24" vertex="1">
          <mxGeometry y="26" width="230" height="84" as="geometry" />
        </mxCell>
        <mxCell id="NmorBJye4ewMazEb5oh--30" style="edgeStyle=orthogonalEdgeStyle;rounded=0;orthogonalLoop=1;jettySize=auto;html=1;exitX=0.5;exitY=0;exitDx=0;exitDy=0;entryX=1;entryY=0.5;entryDx=0;entryDy=0;endArrow=block;endFill=0;" parent="1" source="NmorBJye4ewMazEb5oh--26" target="NmorBJye4ewMazEb5oh--19" edge="1">
          <mxGeometry relative="1" as="geometry" />
        </mxCell>
        <mxCell id="NmorBJye4ewMazEb5oh--26" value="CustomSearchOne" style="swimlane;fontStyle=0;childLayout=stackLayout;horizontal=1;startSize=26;fillColor=none;horizontalStack=0;resizeParent=1;resizeParentMax=0;resizeLast=0;collapsible=1;marginBottom=0;whiteSpace=wrap;html=1;" parent="1" vertex="1">
          <mxGeometry x="1000" y="390" width="230" height="200" as="geometry" />
        </mxCell>
        <mxCell id="NmorBJye4ewMazEb5oh--27" value="+ search(Grid grid, tuple[int, int] start, tuple[int, int] goal): (tuple[list, int, list] | tuple[None, int, list])&amp;nbsp; &amp;lt;&amp;lt;override&amp;gt;&amp;gt;&lt;div&gt;&lt;br&gt;&lt;/div&gt;&lt;div&gt;- dls&lt;span style=&quot;background-color: initial;&quot;&gt;(Grid grid, tuple[int, int] start, tuple[int, int] goal, int limit): (tuple[list, int, list] | tuple[None, int, list])&amp;nbsp;&lt;/span&gt;&lt;/div&gt;&lt;div&gt;&lt;span style=&quot;background-color: initial;&quot;&gt;&lt;br&gt;&lt;/span&gt;&lt;/div&gt;&lt;div&gt;&lt;span style=&quot;background-color: initial;&quot;&gt;- iddfs&lt;/span&gt;&lt;span style=&quot;background-color: initial;&quot;&gt;(Grid grid, tuple[int, int] start, tuple[int, int] goal): (tuple[list, int, list] | tuple[None, int, list])&amp;nbsp;&lt;/span&gt;&lt;/div&gt;" style="text;strokeColor=none;fillColor=none;align=left;verticalAlign=top;spacingLeft=4;spacingRight=4;overflow=hidden;rotatable=0;points=[[0,0.5],[1,0.5]];portConstraint=eastwest;whiteSpace=wrap;html=1;" parent="NmorBJye4ewMazEb5oh--26" vertex="1">
          <mxGeometry y="26" width="230" height="174" as="geometry" />
        </mxCell>
        <mxCell id="NmorBJye4ewMazEb5oh--38" style="edgeStyle=orthogonalEdgeStyle;rounded=0;orthogonalLoop=1;jettySize=auto;html=1;exitX=0.5;exitY=0;exitDx=0;exitDy=0;entryX=0.501;entryY=1.004;entryDx=0;entryDy=0;entryPerimeter=0;" parent="1" source="NmorBJye4ewMazEb5oh--31" target="NmorBJye4ewMazEb5oh--16" edge="1">
          <mxGeometry relative="1" as="geometry">
            <mxPoint x="-64.6190476190477" y="350" as="targetPoint" />
          </mxGeometry>
        </mxCell>
        <mxCell id="NmorBJye4ewMazEb5oh--31" value="GreedyBestFirstSearch" style="swimlane;fontStyle=0;childLayout=stackLayout;horizontal=1;startSize=26;fillColor=none;horizontalStack=0;resizeParent=1;resizeParentMax=0;resizeLast=0;collapsible=1;marginBottom=0;whiteSpace=wrap;html=1;" parent="1" vertex="1">
          <mxGeometry x="-180" y="417" width="230" height="110" as="geometry" />
        </mxCell>
        <mxCell id="NmorBJye4ewMazEb5oh--32" value="+ search(Grid grid, tuple[int, int] start, tuple[int, int] goal, IHeuristicType heuristicType): (tuple[list, int, list] | tuple[None, int, list])&amp;nbsp; &amp;lt;&amp;lt;override&amp;gt;&amp;gt;" style="text;strokeColor=none;fillColor=none;align=left;verticalAlign=top;spacingLeft=4;spacingRight=4;overflow=hidden;rotatable=0;points=[[0,0.5],[1,0.5]];portConstraint=eastwest;whiteSpace=wrap;html=1;" parent="NmorBJye4ewMazEb5oh--31" vertex="1">
          <mxGeometry y="26" width="230" height="84" as="geometry" />
        </mxCell>
        <mxCell id="NmorBJye4ewMazEb5oh--39" style="edgeStyle=orthogonalEdgeStyle;rounded=0;orthogonalLoop=1;jettySize=auto;html=1;exitX=0.5;exitY=0;exitDx=0;exitDy=0;entryX=1;entryY=0.5;entryDx=0;entryDy=0;" parent="1" source="NmorBJye4ewMazEb5oh--33" target="NmorBJye4ewMazEb5oh--16" edge="1">
          <mxGeometry relative="1" as="geometry" />
        </mxCell>
        <mxCell id="NmorBJye4ewMazEb5oh--33" value="AStarSearch" style="swimlane;fontStyle=0;childLayout=stackLayout;horizontal=1;startSize=26;fillColor=none;horizontalStack=0;resizeParent=1;resizeParentMax=0;resizeLast=0;collapsible=1;marginBottom=0;whiteSpace=wrap;html=1;" parent="1" vertex="1">
          <mxGeometry x="90" y="417" width="230" height="110" as="geometry" />
        </mxCell>
        <mxCell id="NmorBJye4ewMazEb5oh--34" value="+ search(Grid grid, tuple[int, int] start, tuple[int, int] goal): (tuple[list, int, list] | tuple[None, int, list])&amp;nbsp; &amp;lt;&amp;lt;override&amp;gt;&amp;gt;" style="text;strokeColor=none;fillColor=none;align=left;verticalAlign=top;spacingLeft=4;spacingRight=4;overflow=hidden;rotatable=0;points=[[0,0.5],[1,0.5]];portConstraint=eastwest;whiteSpace=wrap;html=1;" parent="NmorBJye4ewMazEb5oh--33" vertex="1">
          <mxGeometry y="26" width="230" height="84" as="geometry" />
        </mxCell>
        <mxCell id="NmorBJye4ewMazEb5oh--40" style="edgeStyle=orthogonalEdgeStyle;rounded=0;orthogonalLoop=1;jettySize=auto;html=1;exitX=0.5;exitY=0;exitDx=0;exitDy=0;entryX=0;entryY=0.5;entryDx=0;entryDy=0;" parent="1" source="NmorBJye4ewMazEb5oh--35" target="NmorBJye4ewMazEb5oh--16" edge="1">
          <mxGeometry relative="1" as="geometry" />
        </mxCell>
        <mxCell id="NmorBJye4ewMazEb5oh--35" value="CustomSearchTwo" style="swimlane;fontStyle=0;childLayout=stackLayout;horizontal=1;startSize=26;fillColor=none;horizontalStack=0;resizeParent=1;resizeParentMax=0;resizeLast=0;collapsible=1;marginBottom=0;whiteSpace=wrap;html=1;" parent="1" vertex="1">
          <mxGeometry x="-490" y="385" width="230" height="200" as="geometry" />
        </mxCell>
        <mxCell id="NmorBJye4ewMazEb5oh--36" value="+ search(Grid grid, tuple[int, int] start, tuple[int, int] goal): (tuple[list, int, list] | tuple[None, int, list], IHeuristicType heuristicType, float weight)&amp;nbsp; &amp;lt;&amp;lt;override&amp;gt;&amp;gt;&lt;div&gt;&lt;br&gt;&lt;/div&gt;&lt;div&gt;- weightedAStarSearch(&lt;span style=&quot;background-color: initial;&quot;&gt;Grid grid, tuple[int, int] start, tuple[int, int] goal, IHeuristicType heuristicType, float weight): (tuple[list, int, list] | tuple[None, int, list]&lt;/span&gt;&lt;/div&gt;" style="text;strokeColor=none;fillColor=none;align=left;verticalAlign=top;spacingLeft=4;spacingRight=4;overflow=hidden;rotatable=0;points=[[0,0.5],[1,0.5]];portConstraint=eastwest;whiteSpace=wrap;html=1;" parent="NmorBJye4ewMazEb5oh--35" vertex="1">
          <mxGeometry y="26" width="230" height="174" as="geometry" />
        </mxCell>
      </root>
    </mxGraphModel>
  </diagram>
</mxfile>
